<?xml version="1.0" encoding="utf-8"?>
<!-- Generator: Adobe Illustrator 23.1.1, SVG Export Plug-In . SVG Version: 6.00 Build 0)  -->
<svg version="1.1" id="Layer_1" xmlns="http://www.w3.org/2000/svg" xmlns:xlink="http://www.w3.org/1999/xlink" x="0px" y="0px"
	 viewBox="0 0 3160.78 1920" style="enable-background:new 0 0 3160.78 1920;" xml:space="preserve">
<style type="text/css">
	.st0{fill:#231F20;}
</style>
<g>
	<path d="M145.1,1058.63V812.01h183.2v246.62h-15.15V826.1h-152.9v232.52H145.1z"/>
	<path d="M438.92,1058.63V812.01h81.03c21.84,0,39.81,6.52,53.9,19.55C587.95,844.6,595,862.04,595,883.88
		c0,22.08-7.05,39.69-21.14,52.84c-14.09,13.16-32.06,19.73-53.9,19.73h-65.88v102.17H438.92z M454.08,942.37h65.17
		c18.32,0,32.88-5.16,43.69-15.5c10.8-10.33,16.21-24.66,16.21-42.98c0-18.32-5.41-32.53-16.21-42.63
		c-10.8-10.1-25.37-15.15-43.69-15.15h-65.17V942.37z"/>
	<path d="M664.75,933.56c0-35.23,12.15-65,36.46-89.31c24.31-24.31,53.73-36.46,88.25-36.46c34.53,0,63.94,12.15,88.25,36.46
		c24.31,24.31,36.46,54.08,36.46,89.31c0,36.17-12.15,66.76-36.46,91.78c-24.31,25.01-53.73,37.52-88.25,37.52
		c-34.53,0-63.94-12.51-88.25-37.52C676.91,1000.32,664.75,969.73,664.75,933.56z M680.6,933.56c0,32.18,10.57,59.36,31.71,81.56
		c21.14,22.19,46.86,33.29,77.16,33.29c30.3,0,56.02-11.1,77.16-33.29c21.14-22.2,31.71-49.38,31.71-81.56
		c0-31.47-10.57-57.89-31.71-79.27c-21.14-21.37-46.86-32.06-77.16-32.06c-30.3,0-56.02,10.69-77.16,32.06
		C691.17,875.66,680.6,902.09,680.6,933.56z"/>
	<path d="M1007.89,1058.63V812.01h124.36v14.09h-109.21v232.52H1007.89z"/>
	<path d="M1210.82,1058.63V812.01h81.03c21.84,0,39.81,6.52,53.9,19.55c14.09,13.03,21.14,30.47,21.14,52.32
		c0,22.08-7.05,39.69-21.14,52.84c-14.09,13.16-32.06,19.73-53.9,19.73h-65.88v102.17H1210.82z M1225.97,942.37h65.17
		c18.32,0,32.88-5.16,43.69-15.5c10.8-10.33,16.21-24.66,16.21-42.98c0-18.32-5.41-32.53-16.21-42.63
		c-10.8-10.1-25.37-15.15-43.69-15.15h-65.17V942.37z"/>
	<path d="M1453.56,1058.63V812.01h134.93v14.09h-119.78v101.11H1567v14.09h-98.29v103.23h126.48v14.09H1453.56z"/>
	<path d="M1662.83,933.56c0-35.94,11.51-65.88,34.53-89.84c23.02-23.96,52.26-35.94,87.72-35.94c36.64,0,66,10.34,88.08,31
		l-9.16,11.27c-9.87-8.69-21.84-15.5-35.94-20.43c-14.09-4.93-28.31-7.4-42.63-7.4c-31.24,0-56.84,10.51-76.8,31.53
		c-19.96,21.02-29.94,47.62-29.94,79.8c0,32.65,10.04,59.95,30.12,81.91c20.08,21.96,45.98,32.94,77.68,32.94
		c32.88,0,60.71-11.15,83.5-33.47l9.51,10.57c-25.84,24.9-56.84,37.34-93.01,37.34c-36.41,0-66.12-12.45-89.13-37.34
		C1674.33,1000.62,1662.83,969.97,1662.83,933.56z"/>
</g>
<g>
	<path d="M2178.05,1058.63l19.73-246.62h14.8l71.87,155.01l11.98,27.83h0.7c4.23-10.57,8.22-19.85,11.98-27.83l71.87-155.01h14.8
		l19.73,246.62h-15.15l-15.15-188.13l-1.05-32.76h-0.71c-4.7,13.86-8.93,24.78-12.68,32.76l-66.23,140.57h-15.5l-65.88-140.57
		l-13.04-33.47h-0.71c0,14.33-0.35,25.49-1.05,33.47l-15.15,188.13H2178.05z"/>
	<path d="M2488.43,1058.63l92.3-246.62h16.21l92.31,246.62h-16.21l-32.06-85.26h-104.63l-31.71,85.26H2488.43z M2541.63,959.27
		h94.06l-37.34-100.05l-9.16-29.59h-0.71c-3.52,12.68-6.58,22.55-9.16,29.59L2541.63,959.27z"/>
	<path d="M2771.69,1058.63V812.01h124.36v14.09h-109.21v232.52H2771.69z"/>
</g>
<g>
	<path class="st0" d="M2535.26,1508.31c-152.15,0-295.19-59.25-402.78-166.84c-107.59-107.59-166.84-250.63-166.84-402.78
		s59.25-295.2,166.84-402.78c107.59-107.59,250.63-166.84,402.78-166.84c152.15,0,295.19,59.25,402.78,166.84
		c107.59,107.59,166.84,250.63,166.84,402.78c0,152.15-59.25,295.19-166.84,402.78C2830.45,1449.06,2687.41,1508.31,2535.26,1508.31
		z M2535.26,382.02c-148.69,0-288.48,57.9-393.63,163.04C2036.49,650.2,1978.59,790,1978.59,938.69
		c0,148.69,57.9,288.48,163.04,393.62c105.14,105.14,244.93,163.04,393.63,163.04c148.69,0,288.48-57.9,393.62-163.04
		c105.14-105.14,163.04-244.93,163.04-393.62c0-148.69-57.9-288.48-163.04-393.62C2823.74,439.92,2683.95,382.02,2535.26,382.02z"/>
</g>
</svg>
