<svg aria-hidden="true" style="position:absolute;width:0;height:0" xmlns="http://www.w3.org/2000/svg" overflow="hidden"><defs><symbol id="icon-bearing" viewBox="0 0 32 32"><path d="M16 1.6C8.06 1.6 1.6 8.06 1.6 16S8.06 30.4 16 30.4 30.4 23.94 30.4 16 23.94 1.6 16 1.6zm3.241 4.485a.799.799 0 111.477.61.799.799 0 01-1.477-.61zM23.2 16c0 3.97-3.23 7.2-7.2 7.2S8.8 19.97 8.8 16s3.23-7.2 7.2-7.2 7.2 3.23 7.2 7.2zM16 4c.952 0 1.877.115 2.766.325a2.38 2.38 0 00-1.003 1.148 2.387 2.387 0 000 1.837c.011.026.024.05.036.075a8.809 8.809 0 00-3.596 0c.012-.025.025-.049.036-.075a2.388 2.388 0 00-1.004-2.985A11.959 11.959 0 0116.001 4zm-4.719 2.085a.799.799 0 111.477.61.799.799 0 01-1.477-.61zm-1.583-.291a2.38 2.38 0 00.105 1.516 2.388 2.388 0 001.299 1.299c.028.012.056.02.084.03a8.867 8.867 0 00-2.547 2.547c-.011-.028-.019-.057-.03-.084A2.388 2.388 0 007.31 9.803a2.38 2.38 0 00-1.516-.105 12.09 12.09 0 013.905-3.905zm-4.046 5.92a.799.799 0 111.477.61.799.799 0 01-1.477-.61zm-1.327 7.052a11.959 11.959 0 010-5.532 2.388 2.388 0 002.984 1.004c.026-.011.05-.024.075-.036a8.801 8.801 0 000 3.596c-.025-.012-.049-.025-.075-.036a2.387 2.387 0 00-2.985 1.004zm1.327.908a.799.799 0 111.477.61.799.799 0 01-1.477-.61zm5.449 3.717a2.388 2.388 0 00-1.299 1.299 2.38 2.38 0 00-.105 1.516 12.09 12.09 0 01-3.905-3.905c.197.051.397.079.598.079.311 0 .622-.061.918-.184a2.388 2.388 0 001.299-1.299c.012-.028.02-.056.03-.084a8.867 8.867 0 002.547 2.547l-.084.03zm1.658 2.524a.799.799 0 11-1.477-.61.799.799 0 011.477.61zM16 28c-.954 0-1.88-.115-2.771-.326a2.387 2.387 0 001.008-2.984c-.011-.026-.024-.05-.036-.075a8.809 8.809 0 003.596 0c-.012.025-.025.049-.036.075a2.388 2.388 0 001.008 2.984c-.89.211-1.817.326-2.77.326zm4.719-2.085a.799.799 0 11-1.477-.61.799.799 0 011.477.61zm1.583.291a2.38 2.38 0 00-.105-1.516 2.388 2.388 0 00-1.299-1.299c-.028-.012-.056-.02-.084-.03a8.867 8.867 0 002.547-2.547c.011.028.019.057.03.084a2.388 2.388 0 001.299 1.299c.296.123.607.184.918.184.201 0 .401-.028.598-.079a12.088 12.088 0 01-3.904 3.905zm4.046-5.92a.799.799 0 11-1.477-.61.799.799 0 011.477.61zm1.327-7.052a11.959 11.959 0 010 5.532 2.387 2.387 0 00-2.985-1.004c-.026.011-.05.024-.075.036a8.801 8.801 0 000-3.596c.025.012.049.025.075.036a2.388 2.388 0 002.984-1.004zm-1.327-.908a.799.799 0 11-1.477-.61.799.799 0 011.477.61zM24.69 9.803a2.388 2.388 0 00-1.299 1.299c-.012.028-.02.056-.03.084a8.867 8.867 0 00-2.547-2.547c.028-.011.057-.019.084-.03a2.388 2.388 0 001.299-1.299 2.38 2.38 0 00.105-1.516 12.09 12.09 0 013.905 3.905 2.38 2.38 0 00-1.516.105z"/><path d="M10.4 16c0 3.088 2.512 5.6 5.6 5.6s5.6-2.512 5.6-5.6-2.512-5.6-5.6-5.6-5.6 2.512-5.6 5.6zm8.8 0c0 1.764-1.436 3.2-3.2 3.2s-3.2-1.436-3.2-3.2 1.436-3.2 3.2-3.2 3.2 1.436 3.2 3.2zM15.2 4.8h1.6v1.6h-1.6V4.8zM15.2 25.6h1.6v1.6h-1.6v-1.6zM23.354 9.778l-1.131-1.131 1.131-1.131 1.131 1.131-1.131 1.131zM8.646 24.485l-1.131-1.131 1.131-1.131 1.131 1.131-1.131 1.131zM25.6 15.2h1.6v1.6h-1.6v-1.6zM4.8 15.2h1.6v1.6H4.8v-1.6zM23.354 24.485l-1.131-1.131 1.131-1.131 1.131 1.131-1.131 1.131zM8.646 7.515l1.131 1.131-1.131 1.131-1.131-1.131 1.131-1.131z"/></symbol><symbol id="icon-belt-logo" viewBox="0 0 32 32"><path d="M7.5 20.75c-2.068 0-3.75 1.682-3.75 3.75s1.682 3.75 3.75 3.75 3.75-1.682 3.75-3.75-1.682-3.75-3.75-3.75zm0 5.625c-1.034 0-1.875-.841-1.875-1.875s.841-1.875 1.875-1.875 1.875.841 1.875 1.875-.841 1.875-1.875 1.875zM11.25 3.75c-1.034 0-1.875.841-1.875 1.875S10.216 7.5 11.25 7.5s1.875-.841 1.875-1.875-.841-1.875-1.875-1.875z"/><path d="M30.379 11.975h-.001c-.001 0 0 0 0 0L14.442.994h-.001a5.628 5.628 0 00-8.574 2.991v.001L.323 22.314v.001A7.493 7.493 0 00-.001 24.5c0 4.136 3.365 7.5 7.5 7.5a7.467 7.467 0 004.185-1.275h.001l18.657-12.55a3.752 3.752 0 00.035-6.199zM11.25 1.875a3.75 3.75 0 11-3.75 3.75 3.738 3.738 0 013.75-3.75zM7.5 30.125A5.63 5.63 0 011.875 24.5 5.607 5.607 0 017.5 18.875a5.63 5.63 0 015.625 5.625A5.626 5.626 0 017.5 30.125zm7.255-3.725c.16-.613.245-1.25.245-1.9 0-4.136-3.364-7.5-7.5-7.5a7.429 7.429 0 00-3.95 1.124l2.896-9.575a5.628 5.628 0 004.804 2.701 5.63 5.63 0 005.58-6.335l9.811 6.761a3.753 3.753 0 00-2.141 3.386c0 1.477.859 2.757 2.103 3.368l-11.848 7.969zm13.495-9.462c-1.034 0-1.875-.841-1.875-1.875s.841-1.875 1.875-1.875a1.875 1.875 0 010 3.75z"/></symbol><symbol id="icon-chain-logo" viewBox="0 0 32 32"><path d="M30.337 2.575l-.911-.911C28.353.591 26.927.001 25.41.001s-2.943.591-4.016 1.663l-6.612 6.612a5.641 5.641 0 00-1.663 4.016c0 .304.025.604.071.898a5.817 5.817 0 00-.898-.071 5.645 5.645 0 00-4.016 1.663l-6.612 6.612a5.687 5.687 0 000 8.032l.911.911C3.648 31.41 5.074 32 6.591 32s2.943-.591 4.016-1.663l6.612-6.612a5.673 5.673 0 001.588-4.915c.296.047.597.072.902.072h.001a5.641 5.641 0 004.015-1.663l6.612-6.612a5.687 5.687 0 000-8.032zM15.693 22.199l-6.612 6.612c-.665.665-1.55 1.032-2.49 1.032s-1.825-.366-2.49-1.032L3.19 27.9a3.527 3.527 0 010-4.981l6.612-6.612c.665-.665 1.55-1.032 2.491-1.032s1.825.366 2.49 1.032l.911.911a3.527 3.527 0 010 4.981zM28.811 9.081l-6.612 6.612a3.498 3.498 0 01-2.49 1.032 3.498 3.498 0 01-2.49-1.031l-.911-.911a3.5 3.5 0 01-1.032-2.491c0-.941.366-1.825 1.032-2.491l6.612-6.612a3.5 3.5 0 012.49-1.032c.94 0 1.825.366 2.49 1.032l.911.911a3.527 3.527 0 010 4.981z"/><path d="M24.322 6.153l-5.05 5.05a1.079 1.079 0 101.526 1.525l5.05-5.05a1.079 1.079 0 00-1.525-1.525zM11.203 19.271l-5.05 5.05a1.079 1.079 0 101.526 1.525l5.05-5.05a1.079 1.079 0 00-1.525-1.525z"/></symbol><symbol id="icon-logo" viewBox="0 0 53 32"><path d="M2.418 17.644v-4.11h3.053v4.11h-.253v-3.876H2.67v3.875h-.252zM7.315 17.644v-4.11h1.351c.364 0 .663.109.898.326s.352.508.352.872c0 .368-.117.662-.352.881s-.534.329-.898.329H7.568v1.703h-.253zm.253-1.938h1.086c.305 0 .548-.086.728-.258s.27-.411.27-.716-.09-.542-.27-.71c-.18-.168-.423-.252-.728-.252H7.568v1.938zM11.079 15.559c0-.587.203-1.083.608-1.489s.896-.608 1.471-.608c.575 0 1.066.203 1.471.608s.608.901.608 1.489c0 .603-.203 1.113-.608 1.53s-.896.625-1.471.625c-.575 0-1.066-.209-1.471-.625s-.608-.927-.608-1.53zm.264 0c0 .536.176.989.528 1.359s.781.555 1.286.555.934-.185 1.286-.555c.352-.37.528-.823.528-1.359 0-.524-.176-.965-.528-1.321s-.781-.534-1.286-.534-.934.178-1.286.534c-.352.356-.528.797-.528 1.321zM16.798 17.644v-4.11h2.073v.235h-1.82v3.875h-.253zM20.18 17.644v-4.11h1.351c.364 0 .663.109.898.326s.352.508.352.872c0 .368-.117.662-.352.881s-.534.329-.898.329h-1.098v1.703h-.253zm.253-1.938h1.086c.305 0 .548-.086.728-.258s.27-.411.27-.716-.09-.542-.27-.71c-.18-.168-.423-.252-.728-.252h-1.086v1.938zM24.226 17.644v-4.11h2.249v.235h-1.996v1.685h1.638v.235h-1.638v1.721h2.108v.235h-2.36zM27.714 15.559c0-.599.192-1.098.576-1.497s.871-.599 1.462-.599c.611 0 1.1.172 1.468.517l-.153.188c-.165-.145-.364-.258-.599-.341s-.472-.123-.71-.123c-.521 0-.947.175-1.28.525s-.499.794-.499 1.33c0 .544.167.999.502 1.365s.766.549 1.295.549c.548 0 1.012-.186 1.392-.558l.159.176a2.154 2.154 0 01-1.55.622c-.607 0-1.102-.207-1.485-.622s-.576-.925-.576-1.532zM36.301 17.644l.329-4.11h.247l1.198 2.583.2.464h.012c.071-.176.137-.331.2-.464l1.198-2.584h.247l.329 4.11h-.252l-.252-3.136-.017-.546h-.012a5.515 5.515 0 01-.211.546l-1.104 2.343h-.258l-1.098-2.343-.217-.558h-.012c0 .239-.006.425-.017.558l-.252 3.136h-.253zM41.474 17.644l1.538-4.11h.27l1.538 4.11h-.27l-.534-1.421h-1.744l-.529 1.421h-.27zm.887-1.656h1.568l-.622-1.668-.153-.493h-.012a6.93 6.93 0 01-.153.493l-.628 1.668zM46.195 17.644v-4.11h2.073v.235h-1.82v3.875h-.252z"/><path d="M42.254 25.139c-2.536 0-4.92-.988-6.713-2.781s-2.781-4.177-2.781-6.713.987-4.92 2.781-6.713c1.793-1.793 4.177-2.781 6.713-2.781s4.92.987 6.713 2.781c1.793 1.793 2.781 4.177 2.781 6.713s-.987 4.92-2.781 6.713a9.432 9.432 0 01-6.713 2.781zm0-18.772c-2.478 0-4.808.965-6.56 2.717s-2.717 4.082-2.717 6.56.965 4.808 2.717 6.56c1.752 1.752 4.082 2.717 6.56 2.717s4.808-.965 6.56-2.717 2.717-4.082 2.717-6.56c0-2.478-.965-4.808-2.717-6.56s-4.082-2.717-6.56-2.717z"/></symbol><symbol id="icon-rti-logo" viewBox="0 0 32 32"><path d="M2.912 11.712l11.52 6.496c.48.32 1.024.48 1.568.48s1.088-.16 1.568-.48l11.52-6.496c.608-.352.992-.96.992-1.664s-.384-1.312-.992-1.664l-11.52-6.368c-.928-.64-2.176-.64-3.136 0L2.912 8.384c-.64.352-.992.96-.992 1.664s.352 1.312.992 1.664zm.64-2.176l11.52-6.368c.032 0 .032-.032.064-.032a1.546 1.546 0 011.728 0c.032 0 .032.032.064.032l11.52 6.368c.224.128.352.32.352.544s-.128.416-.352.544l-11.52 6.496c-.032 0-.032.032-.064.032a1.546 1.546 0 01-1.728 0c-.032 0-.032-.032-.064-.032l-11.52-6.528c-.224-.128-.352-.32-.352-.544 0-.192.128-.416.352-.512z"/><path d="M29.088 14.336c-.32-.16-.704-.064-.864.256s-.064.704.256.864c.224.128.352.32.352.544s-.128.416-.352.544l-11.552 6.528c-.032 0-.032.032-.064.032a1.546 1.546 0 01-1.728 0c-.032 0-.032-.032-.064-.032l-11.52-6.528c-.224-.128-.352-.32-.352-.544s.128-.416.352-.544c.32-.16.416-.576.256-.864-.16-.32-.576-.416-.864-.256-.64.352-.992.96-.992 1.664s.352 1.312.992 1.664l11.52 6.496c.48.32 1.024.48 1.568.48s1.088-.16 1.568-.48l11.52-6.496c.608-.352.992-.96.992-1.664a2.056 2.056 0 00-1.024-1.664z"/><path d="M29.088 20.096c-.32-.16-.704-.064-.864.256s-.064.704.256.864c.224.128.352.32.352.544s-.128.416-.352.544l-11.552 6.528c-.032 0-.032.032-.064.032a1.546 1.546 0 01-1.728 0c-.032 0-.032-.032-.064-.032l-11.52-6.528c-.224-.128-.352-.32-.352-.544s.128-.416.352-.544c.32-.16.416-.576.256-.864s-.576-.416-.864-.256c-.64.352-.992.96-.992 1.664s.352 1.312.992 1.664l11.52 6.496c.48.32 1.024.48 1.568.48s1.088-.16 1.568-.48l11.52-6.496c.608-.352.992-.96.992-1.664a2.056 2.056 0 00-1.024-1.664z"/></symbol><symbol id="icon-rubber-logo" viewBox="0 0 32 32"><path d="M30.018 19.322l-.081-.081a4.616 4.616 0 01-1.279-3.199c0-1.199.455-2.335 1.281-3.201l.079-.079A6.724 6.724 0 0032 7.977a6.774 6.774 0 00-6.767-6.767h-1.542a6.775 6.775 0 00-6.767 6.767c0 1.681.609 3.267 1.721 4.509a4.616 4.616 0 01-2.643-1.315 4.615 4.615 0 01-1.358-3.169V7.89a6.722 6.722 0 00-1.982-4.785 6.72 6.72 0 00-4.785-1.979 6.72 6.72 0 00-4.785 1.979L1.977 4.22a6.776 6.776 0 000 9.57 6.722 6.722 0 004.785 1.982h.115a4.614 4.614 0 013.165 1.358A4.617 4.617 0 0111.4 20.3v.111c0 1.808.704 3.507 1.982 4.785a6.732 6.732 0 004.266 1.959 6.774 6.774 0 006.041 3.72h1.542a6.775 6.775 0 006.767-6.767 6.722 6.722 0 00-1.982-4.785zM3.784 3.795C4.876 2.703 6.33 2.102 7.878 2.102s3.003.601 4.094 1.693a5.752 5.752 0 011.696 4.094v.129c.033 1.451.616 2.816 1.644 3.843s2.39 1.61 3.84 1.644h.134c.077 0 .154.002.231.005.039.059.076.12.112.181a5.612 5.612 0 00-.38-.01c-1.534-.009-2.974-.611-4.06-1.696s-1.687-2.526-1.696-4.059l.001-.036c0-1.5-.584-2.91-1.645-3.971a5.622 5.622 0 00-8.573.754c-.039.027-.079.054-.117.083l.031.042a5.625 5.625 0 00.717 7.063 5.579 5.579 0 003.971 1.645l.036-.001c1.534.009 2.974.611 4.059 1.696s1.687 2.526 1.696 4.06l-.001.035c0 1.5.584 2.911 1.645 3.971a5.576 5.576 0 001.617 1.128c.003.065.006.129.011.194a5.798 5.798 0 01-1.751-1.198 5.752 5.752 0 01-1.696-4.095v-.116-.011a5.59 5.59 0 00-1.644-3.845 5.59 5.59 0 00-3.839-1.644h-.134a5.75 5.75 0 01-4.094-1.696A5.75 5.75 0 012.09 7.89a5.75 5.75 0 011.693-4.094zm6.95 1.239c-.946-.946-2.274-1.478-3.738-1.496a6.345 6.345 0 00-.848.048 4.643 4.643 0 015.01 1.024 4.612 4.612 0 011.359 3.245l-.001.036c0 1.808.704 3.508 1.982 4.786s2.978 1.982 4.787 1.982l.035-.001c.253.002.507.025.758.069.043.145.078.293.107.442a5.638 5.638 0 00-2.051-.372c-1.534-.009-2.974-.611-4.059-1.696s-1.687-2.526-1.696-4.059l.001-.036c0-1.5-.584-2.911-1.645-3.971zm3.342 19.471a5.752 5.752 0 01-1.696-4.094v-.116-.011a5.59 5.59 0 00-1.644-3.845 5.59 5.59 0 00-3.839-1.644h-.133a5.748 5.748 0 01-4.094-1.696A5.791 5.791 0 011.117 7.74l-.002.15c0 1.809.703 3.509 1.979 4.785a6.722 6.722 0 004.785 1.982h.116a4.613 4.613 0 013.165 1.358 4.617 4.617 0 011.358 3.17v.111c0 1.808.704 3.507 1.982 4.785a6.764 6.764 0 002.615 1.621c.034.141.073.281.116.419a5.755 5.755 0 01-3.155-1.616zm2.895-1.188a4.624 4.624 0 01-.966-.741 4.608 4.608 0 01-1.359-3.245l.001-.035c0-1.808-.704-3.508-1.982-4.786a6.725 6.725 0 00-4.821-1.982 4.608 4.608 0 01-3.245-1.359 4.646 4.646 0 01-.618-5.794 5.475 5.475 0 013.004-.862c1.208.015 2.294.445 3.06 1.21a4.607 4.607 0 011.358 3.245l-.001.036c0 1.808.704 3.508 1.983 4.786s2.978 1.983 4.786 1.983l.036-.001a4.657 4.657 0 012.056.497 4.616 4.616 0 01-1.276 2.975l-.078.078a6.72 6.72 0 00-1.937 3.995zm.931.791c0-1.547.602-3.001 1.696-4.094l.082-.082.008-.008a5.59 5.59 0 001.556-3.881 5.588 5.588 0 00-1.552-3.877l-.008-.008-.086-.085a5.752 5.752 0 01-1.696-4.095 5.786 5.786 0 012.591-4.823l-.042.041a6.722 6.722 0 00-1.984 4.783c0 1.808.704 3.507 1.983 4.785l.082.082a4.617 4.617 0 011.278 3.198 4.615 4.615 0 01-1.282 3.202l-.078.078a6.722 6.722 0 00-1.982 4.785c0 1.887.777 3.596 2.027 4.824a5.789 5.789 0 01-2.592-4.824zm7.331 5.79a5.796 5.796 0 01-5.79-5.79c0-1.547.602-3.001 1.696-4.094l.082-.082.008-.008a5.59 5.59 0 001.556-3.881 5.588 5.588 0 00-1.552-3.877l-.008-.008-.086-.086a5.752 5.752 0 01-1.696-4.095c0-1.544.603-2.997 1.698-4.092s2.548-1.698 4.092-1.698a5.796 5.796 0 015.79 5.79 5.748 5.748 0 01-1.696 4.094l-.083.083-.008.008a5.589 5.589 0 00-1.555 3.88c0 1.452.551 2.829 1.553 3.878l.008.008.085.085a5.752 5.752 0 011.696 4.094 5.797 5.797 0 01-5.79 5.79z"/><path d="M29.204 20.136l-.026-.024c-1.078-1.091-1.671-2.535-1.672-4.07a5.749 5.749 0 011.698-4.095 5.579 5.579 0 001.645-3.971c0-3.096-2.519-5.616-5.616-5.616s-5.616 2.519-5.616 5.616c0 1.5.584 2.911 1.645 3.971l.026.024c1.078 1.091 1.671 2.535 1.671 4.07s-.593 2.979-1.671 4.07l-.026.024a5.579 5.579 0 00-1.645 3.971c0 3.096 2.519 5.616 5.616 5.616s5.616-2.519 5.616-5.616c0-1.5-.584-2.91-1.645-3.971zm-7.25-8.88l-.026-.024a4.605 4.605 0 01-1.334-3.255 4.647 4.647 0 013.676-4.538c2.011.42 4.059 2.21 4.059 4.538a4.605 4.605 0 01-1.36 3.279 6.716 6.716 0 00-1.972 4.412 6.766 6.766 0 00-1.332-1.528 6.728 6.728 0 00-1.712-2.883zm1.465 7.392c.108-.259.2-.525.275-.796a4.659 4.659 0 01-.108 3.183c.1-.807.049-1.626-.166-2.387zm-1.49 2.204l.026-.024c.257-.257.49-.531.7-.82a5.452 5.452 0 01-.854 3.185 4.574 4.574 0 01-1.19.547 4.603 4.603 0 011.319-2.889zm-1.29 3.893a5.538 5.538 0 001.738-.761l.042.031.083-.116a5.615 5.615 0 001.433-7.749l.001-.108c0-.067-.001-.133-.003-.199a5.751 5.751 0 011.139 3.453 5.749 5.749 0 01-1.693 4.094 5.733 5.733 0 01-2.713 1.526 5.057 5.057 0 01-.027-.171zm3.632 3.9a4.652 4.652 0 01-3.042-2.2 6.706 6.706 0 001.726-1.25l1.115-1.115a6.716 6.716 0 001.969-4.413c.264.415.576.804.932 1.16l.025.024a4.605 4.605 0 011.334 3.255c0 2.328-2.048 4.118-4.059 4.538zm2.87-.311c.232-.186.452-.387.656-.604.974-1.034 1.51-2.321 1.51-3.623 0-1.5-.584-2.911-1.645-3.971l-.026-.024c-1.078-1.091-1.672-2.535-1.672-4.07a5.753 5.753 0 011.697-4.094 5.579 5.579 0 001.645-3.971c0-1.302-.536-2.589-1.51-3.623a6.566 6.566 0 00-.656-.604 4.645 4.645 0 012.732 4.227 4.609 4.609 0 01-1.359 3.279c-1.278 1.278-1.982 2.978-1.982 4.786s.704 3.508 1.983 4.786l.025.024a4.605 4.605 0 011.334 3.255 4.644 4.644 0 01-2.731 4.227z"/></symbol><symbol id="icon-toolbox-logo" viewBox="0 0 32 32"><path d="M4.756 7.853c.063-.031.124-.064.183-.097.03.04.061.077.098.114l3.458 3.459a1.16 1.16 0 01.88-.414c.112 0 .223.016.33.048l.431.128.268-.903-3.843-3.843a1.104 1.104 0 00-.197-.154l.009-.04c.009-.037.021-.064.032-.096l.027-.074.034-.08c.019-.046.039-.097.065-.148l.072-.147.082-.145c.035-.067.074-.125.119-.191a5.16 5.16 0 00.072-.109l.067-.089c.056-.074.108-.144.165-.205l.04-.044c.075-.082.15-.167.237-.239l.071-.064c.029-.027.059-.056.091-.081l.168-.122a.036.036 0 00.013-.011c.067-.054.148-.099.235-.148l.102-.058c.072-.046.147-.076.226-.108l.119-.05.07-.03c.025-.01.05-.023.075-.029l.185-.052c.037-.009.079-.021.123-.034.06-.018.118-.034.158-.04l.496-.073a.325.325 0 00.28-.302.33.33 0 00-.235-.339l-.489-.139a1.684 1.684 0 00-.262-.051 9.485 9.485 0 01-.12-.019l-.214-.033c-.067-.011-.13-.012-.186-.014l-.067-.002c-.056-.001-.097-.003-.139-.005-.125-.005-.266-.011-.415.009l-.095.008c-.143.012-.308.025-.472.065l-.264.053c-.081.02-.149.041-.218.062l-.083.026a4.497 4.497 0 00-.547.203l-.024.01c-.15.062-.286.135-.418.205l-.109.058-.021.012-.127.078c-.114.069-.233.141-.343.222l-.183.13-.026.02-.181.144a2.759 2.759 0 00-.137.114 1.625 1.625 0 00-.89.457l-.387.387a2.713 2.713 0 00-.483.709c-.607-.117-1.431.78-2.66 2.009l2.748 2.747c.942-.943 2.125-2.053 2.008-2.66zM26.304 7.682l1.731.335 1.762-2.225a1.347 1.347 0 011.356-.47v-.958h-2.602v2.082h-2.803l.556 1.237z"/><path d="M10.593 8.244l.534-1.799H8.794z"/><path d="M31.154 17.634v-6.669c-.047.064-.093.129-.143.192a5.797 5.797 0 01-2.763 1.923h.304v4.554h-6.973l3.267-4.455c.059-.076.114-.154.164-.234a4.943 4.943 0 005.076-1.72 4.926 4.926 0 00.966-4.054.426.426 0 00-.752-.18L28.194 9.65l-2.738-.53-1.143-2.544 2.107-2.659a.427.427 0 00-.346-.691 4.93 4.93 0 00-3.727 1.868 4.943 4.943 0 00-.514 5.332 3.443 3.443 0 00-.191.219l-4.228 5.03 1.023 1.023c.265.265.451.586.55.936h-.456a1.704 1.704 0 00-.4-.63l-5.82-5.821-.151.507.394.117c.297.088.541.286.689.558a1.149 1.149 0 01-.145 1.311c.03.272.007.547-.073.812l-.523 1.76 1.384 1.383h-2.384l1.028-3.46a1.503 1.503 0 00-.002-.869.615.615 0 00-.105-1.139l-.913-.272 2.483-8.357.078.023.643-1.245.252-1.942-1.072-.318-.834 1.77-.134 1.396.079.024-2.483 8.358-.951-.282a.617.617 0 00-.724.87c-.229.186-.407.44-.497.744l-1.395 4.701H5.65V13.08h1.728l.309-1.041c.078-.261.131-.333.286-.55l-2.79-2.858c-.382.526-.76 1.072-1.349 1.656l-.787.786v6.561h-.846v9.108a5.205 5.205 0 005.205 5.204h19.386a5.203 5.203 0 005.204-5.204v-9.108h-.846zm-20.428-3.235a.654.654 0 011.253.372l-.85 2.863H9.765l.961-3.235zm-2.108-.626a.653.653 0 111.253.372l-1.036 3.489H7.471l1.147-3.861z"/><path d="M14.102 6.445l-1.007 3.389 3.247 3.246h1.74l2.895-3.443a5.865 5.865 0 01-.29-3.192h-6.585z"/></symbol></defs></svg>